<?xml version="1.0" encoding="UTF-8" standalone="no"?>
<!DOCTYPE svg PUBLIC "-//W3C//DTD SVG 1.1//EN"
 "http://www.w3.org/Graphics/SVG/1.1/DTD/svg11.dtd">
<!-- Generated by graphviz version 3.0.0 (20220226.1711)
 -->
<!-- Pages: 1 -->
<svg width="999pt" height="476pt"
 viewBox="0.00 0.00 999.03 476.00" xmlns="http://www.w3.org/2000/svg" xmlns:xlink="http://www.w3.org/1999/xlink">
<g id="graph0" class="graph" transform="scale(1 1) rotate(0) translate(4 472)">
<polygon fill="white" stroke="transparent" points="-4,4 -4,-472 995.03,-472 995.03,4 -4,4"/>
<!-- Start -->
<g id="node1" class="node">
<title>Start</title>
<ellipse fill="#b2feb2" stroke="black" cx="449.79" cy="-450" rx="27.9" ry="18"/>
<text text-anchor="middle" x="449.79" y="-446.3" font-family="Times New Roman,serif" font-size="14.00">Start</text>
</g>
<!-- T1A -->
<g id="node3" class="node">
<title>T1A</title>
<g id="a_node3"><a xlink:href="T1A.html" xlink:title="T1A.Delete old build dir">
<ellipse fill="#b2feb2" stroke="black" cx="98.79" cy="-378" rx="98.58" ry="18"/>
<text text-anchor="middle" x="98.79" y="-374.3" font-family="Times New Roman,serif" font-size="14.00">T1A.Delete old build dir</text>
</a>
</g>
</g>
<!-- Start&#45;&gt;T1A -->
<g id="edge1" class="edge">
<title>Start&#45;&gt;T1A</title>
<path fill="none" stroke="black" d="M423.41,-443.74C370.74,-433.23 250.88,-409.33 172.48,-393.7"/>
<polygon fill="black" stroke="black" points="173.14,-390.26 162.65,-391.74 171.77,-397.12 173.14,-390.26"/>
</g>
<!-- T1B -->
<g id="node4" class="node">
<title>T1B</title>
<g id="a_node4"><a xlink:href="T1B.html" xlink:title="T1B.Delete old dist dir">
<ellipse fill="#b2feb2" stroke="black" cx="388.79" cy="-378" rx="93.68" ry="18"/>
<text text-anchor="middle" x="388.79" y="-374.3" font-family="Times New Roman,serif" font-size="14.00">T1B.Delete old dist dir</text>
</a>
</g>
</g>
<!-- Start&#45;&gt;T1B -->
<g id="edge2" class="edge">
<title>Start&#45;&gt;T1B</title>
<path fill="none" stroke="black" d="M436.56,-433.81C428.92,-425.05 419.14,-413.83 410.42,-403.82"/>
<polygon fill="black" stroke="black" points="412.92,-401.37 403.72,-396.13 407.65,-405.97 412.92,-401.37"/>
</g>
<!-- T4 -->
<g id="node7" class="node">
<title>T4</title>
<g id="a_node7"><a xlink:href="T4.html" xlink:title="T4.Remove content of output dir">
<ellipse fill="#b2feb2" stroke="black" cx="220.79" cy="-234" rx="131.08" ry="18"/>
<text text-anchor="middle" x="220.79" y="-230.3" font-family="Times New Roman,serif" font-size="14.00">T4.Remove content of output dir</text>
</a>
</g>
</g>
<!-- Start&#45;&gt;T4 -->
<g id="edge5" class="edge">
<title>Start&#45;&gt;T4</title>
<path fill="none" stroke="black" d="M422.13,-447.12C386.32,-443.28 324,-431.58 285.79,-396 247.21,-360.07 231.01,-298.08 224.61,-262.41"/>
<polygon fill="black" stroke="black" points="228.01,-261.54 222.93,-252.25 221.11,-262.69 228.01,-261.54"/>
</g>
<!-- T6 -->
<g id="node8" class="node">
<title>T6</title>
<g id="a_node8"><a xlink:href="T6.html" xlink:title="T6.Generate mo files">
<ellipse fill="#b2feb2" stroke="black" cx="631.79" cy="-306" rx="87.18" ry="18"/>
<text text-anchor="middle" x="631.79" y="-302.3" font-family="Times New Roman,serif" font-size="14.00">T6.Generate mo files</text>
</a>
</g>
</g>
<!-- Start&#45;&gt;T6 -->
<g id="edge6" class="edge">
<title>Start&#45;&gt;T6</title>
<path fill="none" stroke="black" d="M462.54,-433.52C481.09,-411.24 514.92,-371.51 529.79,-360 546.59,-346.99 567.05,-335.64 585.23,-326.81"/>
<polygon fill="black" stroke="black" points="586.95,-329.87 594.49,-322.43 583.96,-323.54 586.95,-329.87"/>
</g>
<!-- T8 -->
<g id="node9" class="node">
<title>T8</title>
<g id="a_node9"><a xlink:href="T8.html" xlink:title="T8.Modify paths.py">
<ellipse fill="#b2feb2" stroke="black" cx="622.79" cy="-378" rx="83.69" ry="18"/>
<text text-anchor="middle" x="622.79" y="-374.3" font-family="Times New Roman,serif" font-size="14.00">T8.Modify paths.py</text>
</a>
</g>
</g>
<!-- Start&#45;&gt;T8 -->
<g id="edge7" class="edge">
<title>Start&#45;&gt;T8</title>
<path fill="none" stroke="black" d="M472.76,-439.7C498.86,-429.14 542.16,-411.62 575.55,-398.11"/>
<polygon fill="black" stroke="black" points="577.17,-401.24 585.13,-394.24 574.54,-394.75 577.17,-401.24"/>
</g>
<!-- T9 -->
<g id="node10" class="node">
<title>T9</title>
<g id="a_node10"><a xlink:href="T9.html" xlink:title="T9.Modify version file and iss file">
<ellipse fill="#b2feb2" stroke="black" cx="857.79" cy="-378" rx="133.48" ry="18"/>
<text text-anchor="middle" x="857.79" y="-374.3" font-family="Times New Roman,serif" font-size="14.00">T9.Modify version file and iss file</text>
</a>
</g>
</g>
<!-- Start&#45;&gt;T9 -->
<g id="edge8" class="edge">
<title>Start&#45;&gt;T9</title>
<path fill="none" stroke="black" d="M476.56,-444.41C534.89,-434.4 675.68,-410.24 768.86,-394.26"/>
<polygon fill="black" stroke="black" points="769.59,-397.68 778.85,-392.54 768.4,-390.78 769.59,-397.68"/>
</g>
<!-- Stop -->
<g id="node2" class="node">
<title>Stop</title>
<ellipse fill="#b2feb2" stroke="black" cx="454.79" cy="-18" rx="28.7" ry="18"/>
<text text-anchor="middle" x="454.79" y="-14.3" font-family="Times New Roman,serif" font-size="14.00">Stop</text>
</g>
<!-- T2 -->
<g id="node5" class="node">
<title>T2</title>
<g id="a_node5"><a xlink:href="T2.html" xlink:title="T2.Remove old build dir">
<ellipse fill="#b2feb2" stroke="black" cx="100.79" cy="-162" rx="100.98" ry="18"/>
<text text-anchor="middle" x="100.79" y="-158.3" font-family="Times New Roman,serif" font-size="14.00">T2.Remove old build dir</text>
</a>
</g>
</g>
<!-- T1A&#45;&gt;T2 -->
<g id="edge3" class="edge">
<title>T1A&#45;&gt;T2</title>
<path fill="none" stroke="black" d="M93.65,-359.97C85.46,-330.46 71.3,-268.02 80.79,-216 82.4,-207.2 85.39,-197.95 88.58,-189.7"/>
<polygon fill="black" stroke="black" points="91.91,-190.79 92.49,-180.21 85.44,-188.12 91.91,-190.79"/>
</g>
<!-- T3 -->
<g id="node6" class="node">
<title>T3</title>
<g id="a_node6"><a xlink:href="T3.html" xlink:title="T3.Remove old dist dir">
<ellipse fill="#b2feb2" stroke="black" cx="430.79" cy="-306" rx="95.58" ry="18"/>
<text text-anchor="middle" x="430.79" y="-302.3" font-family="Times New Roman,serif" font-size="14.00">T3.Remove old dist dir</text>
</a>
</g>
</g>
<!-- T1B&#45;&gt;T3 -->
<g id="edge4" class="edge">
<title>T1B&#45;&gt;T3</title>
<path fill="none" stroke="black" d="M398.96,-360.05C403.84,-351.92 409.79,-342 415.23,-332.94"/>
<polygon fill="black" stroke="black" points="418.28,-334.65 420.43,-324.28 412.28,-331.05 418.28,-334.65"/>
</g>
<!-- T17 -->
<g id="node16" class="node">
<title>T17</title>
<g id="a_node16"><a xlink:href="T17.html" xlink:title="T17.Build with inno">
<ellipse fill="#b2feb2" stroke="black" cx="454.79" cy="-90" rx="82.59" ry="18"/>
<text text-anchor="middle" x="454.79" y="-86.3" font-family="Times New Roman,serif" font-size="14.00">T17.Build with inno</text>
</a>
</g>
</g>
<!-- T2&#45;&gt;T17 -->
<g id="edge16" class="edge">
<title>T2&#45;&gt;T17</title>
<path fill="none" stroke="black" d="M165.72,-148.16C228.15,-135.82 322.18,-117.22 385.9,-104.62"/>
<polygon fill="black" stroke="black" points="386.73,-108.03 395.86,-102.65 385.37,-101.16 386.73,-108.03"/>
</g>
<!-- T11 -->
<g id="node11" class="node">
<title>T11</title>
<g id="a_node11"><a xlink:href="T11.html" xlink:title="T11.Create icons dir">
<ellipse fill="#b2feb2" stroke="black" cx="454.79" cy="-234" rx="85.29" ry="18"/>
<text text-anchor="middle" x="454.79" y="-230.3" font-family="Times New Roman,serif" font-size="14.00">T11.Create icons dir</text>
</a>
</g>
</g>
<!-- T3&#45;&gt;T11 -->
<g id="edge9" class="edge">
<title>T3&#45;&gt;T11</title>
<path fill="none" stroke="black" d="M436.72,-287.7C439.4,-279.9 442.62,-270.51 445.59,-261.83"/>
<polygon fill="black" stroke="black" points="448.99,-262.7 448.93,-252.1 442.37,-260.43 448.99,-262.7"/>
</g>
<!-- T12 -->
<g id="node12" class="node">
<title>T12</title>
<g id="a_node12"><a xlink:href="T12.html" xlink:title="T12.Create translations dir">
<ellipse fill="#b2feb2" stroke="black" cx="664.79" cy="-234" rx="106.68" ry="18"/>
<text text-anchor="middle" x="664.79" y="-230.3" font-family="Times New Roman,serif" font-size="14.00">T12.Create translations dir</text>
</a>
</g>
</g>
<!-- T3&#45;&gt;T12 -->
<g id="edge10" class="edge">
<title>T3&#45;&gt;T12</title>
<path fill="none" stroke="black" d="M479.56,-290.41C516.11,-279.48 566.31,-264.46 605.24,-252.82"/>
<polygon fill="black" stroke="black" points="606.3,-256.15 614.87,-249.93 604.29,-249.45 606.3,-256.15"/>
</g>
<!-- T4&#45;&gt;T17 -->
<g id="edge17" class="edge">
<title>T4&#45;&gt;T17</title>
<path fill="none" stroke="black" d="M247.49,-216.26C276.32,-198.24 323.65,-168.82 364.79,-144 382.35,-133.41 401.95,-121.83 418.37,-112.21"/>
<polygon fill="black" stroke="black" points="420.26,-115.16 427.13,-107.09 416.73,-109.12 420.26,-115.16"/>
</g>
<!-- T6&#45;&gt;T12 -->
<g id="edge11" class="edge">
<title>T6&#45;&gt;T12</title>
<path fill="none" stroke="black" d="M639.78,-288.05C643.53,-280.09 648.1,-270.41 652.29,-261.51"/>
<polygon fill="black" stroke="black" points="655.55,-262.81 656.65,-252.28 649.22,-259.83 655.55,-262.81"/>
</g>
<!-- T10 -->
<g id="node13" class="node">
<title>T10</title>
<g id="a_node13"><a xlink:href="T10.html" xlink:title="T10.Building distribution">
<ellipse fill="#b2feb2" stroke="black" cx="837.79" cy="-306" rx="100.98" ry="18"/>
<text text-anchor="middle" x="837.79" y="-302.3" font-family="Times New Roman,serif" font-size="14.00">T10.Building distribution</text>
</a>
</g>
</g>
<!-- T8&#45;&gt;T10 -->
<g id="edge12" class="edge">
<title>T8&#45;&gt;T10</title>
<path fill="none" stroke="black" d="M666.82,-362.67C700.06,-351.84 745.91,-336.91 781.77,-325.24"/>
<polygon fill="black" stroke="black" points="783.17,-328.46 791.59,-322.04 781,-321.81 783.17,-328.46"/>
</g>
<!-- T9&#45;&gt;T10 -->
<g id="edge13" class="edge">
<title>T9&#45;&gt;T10</title>
<path fill="none" stroke="black" d="M852.85,-359.7C850.62,-351.9 847.94,-342.51 845.46,-333.83"/>
<polygon fill="black" stroke="black" points="848.79,-332.76 842.68,-324.1 842.06,-334.68 848.79,-332.76"/>
</g>
<!-- T13 -->
<g id="node14" class="node">
<title>T13</title>
<g id="a_node14"><a xlink:href="T13.html" xlink:title="T13.Copying icons">
<ellipse fill="#b2feb2" stroke="black" cx="454.79" cy="-162" rx="81.49" ry="18"/>
<text text-anchor="middle" x="454.79" y="-158.3" font-family="Times New Roman,serif" font-size="14.00">T13.Copying icons</text>
</a>
</g>
</g>
<!-- T11&#45;&gt;T13 -->
<g id="edge14" class="edge">
<title>T11&#45;&gt;T13</title>
<path fill="none" stroke="black" d="M454.79,-215.7C454.79,-207.98 454.79,-198.71 454.79,-190.11"/>
<polygon fill="black" stroke="black" points="458.29,-190.1 454.79,-180.1 451.29,-190.1 458.29,-190.1"/>
</g>
<!-- T14 -->
<g id="node15" class="node">
<title>T14</title>
<g id="a_node15"><a xlink:href="T14.html" xlink:title="T14.Copying translations">
<ellipse fill="#b2feb2" stroke="black" cx="660.79" cy="-162" rx="102.88" ry="18"/>
<text text-anchor="middle" x="660.79" y="-158.3" font-family="Times New Roman,serif" font-size="14.00">T14.Copying translations</text>
</a>
</g>
</g>
<!-- T12&#45;&gt;T14 -->
<g id="edge15" class="edge">
<title>T12&#45;&gt;T14</title>
<path fill="none" stroke="black" d="M663.8,-215.7C663.36,-207.98 662.83,-198.71 662.34,-190.11"/>
<polygon fill="black" stroke="black" points="665.83,-189.89 661.77,-180.1 658.84,-190.29 665.83,-189.89"/>
</g>
<!-- T10&#45;&gt;T17 -->
<g id="edge18" class="edge">
<title>T10&#45;&gt;T17</title>
<path fill="none" stroke="black" d="M836.26,-287.94C832.28,-254.56 818.52,-180.69 772.79,-144 738.36,-116.37 625.61,-102.67 544.14,-96.22"/>
<polygon fill="black" stroke="black" points="544.1,-92.71 533.86,-95.43 543.57,-99.69 544.1,-92.71"/>
</g>
<!-- T13&#45;&gt;T17 -->
<g id="edge19" class="edge">
<title>T13&#45;&gt;T17</title>
<path fill="none" stroke="black" d="M454.79,-143.7C454.79,-135.98 454.79,-126.71 454.79,-118.11"/>
<polygon fill="black" stroke="black" points="458.29,-118.1 454.79,-108.1 451.29,-118.1 458.29,-118.1"/>
</g>
<!-- T14&#45;&gt;T17 -->
<g id="edge20" class="edge">
<title>T14&#45;&gt;T17</title>
<path fill="none" stroke="black" d="M615.84,-145.72C583.84,-134.85 540.74,-120.2 507.18,-108.8"/>
<polygon fill="black" stroke="black" points="508.13,-105.43 497.54,-105.52 505.88,-112.06 508.13,-105.43"/>
</g>
<!-- T17&#45;&gt;Stop -->
<g id="edge21" class="edge">
<title>T17&#45;&gt;Stop</title>
<path fill="none" stroke="black" d="M454.79,-71.7C454.79,-63.98 454.79,-54.71 454.79,-46.11"/>
<polygon fill="black" stroke="black" points="458.29,-46.1 454.79,-36.1 451.29,-46.1 458.29,-46.1"/>
</g>
</g>
</svg>
